<?xml version="1.0" encoding="utf-8"?>
<!-- Svg Vector Icons : http://www.onlinewebfonts.com/icon -->
<!DOCTYPE svg PUBLIC "-//W3C//DTD SVG 1.1//EN" "http://www.w3.org/Graphics/SVG/1.1/DTD/svg11.dtd">
<svg version="1.1" xmlns="http://www.w3.org/2000/svg" xmlns:xlink="http://www.w3.org/1999/xlink" x="0px" y="0px" viewBox="0 0 1000 1000" enable-background="new 0 0 1000 1000" xml:space="preserve">
<metadata> Svg Vector Icons : http://www.onlinewebfonts.com/icon </metadata>
<g><g transform="translate(0.000000,512.000000) scale(0.100000,-0.100000)"><path d="M3247.9,4997.5c-68.9-32.5-84.2-99.5-84.2-350.2V4408h-851.6c-581.8,0-865-5.7-895.6-21c-26.8-11.5-57.4-42.1-68.9-68.9c-30.6-65.1-30.6-8941.2,0-9006.2c11.5-26.8,42.1-57.4,68.9-68.9c65.1-30.6,7104-30.6,7169,0c26.8,11.5,57.4,42.1,68.9,68.9c15.3,32.5,21,1276.5,21,4503.1s-5.7,4470.6-21,4503.1c-11.5,26.8-42.1,57.4-68.9,68.9c-30.6,15.3-313.8,21-895.6,21h-851.6v239.2c0,256.4-15.3,317.7-89.9,352.1C6685.1,5028.1,3307.3,5026.2,3247.9,4997.5z M6532,4101.8v-612.4H5001h-1531v612.4v612.4h1531h1531V4101.8z M3163.7,3709.5c0-415.3,9.6-468.9,90-505.2c32.5-15.3,541.6-21.1,1747.3-21.1c1205.7,0,1714.8,5.7,1747.3,21.1c80.4,36.4,89.9,89.9,89.9,505.2v392.3h765.5h765.5V-185v-4286.9H5001H1632.7V-185v4286.9h765.5h765.5V3709.5z"/><path d="M3776.1,4168.8c0-256.4,15.3-317.7,90-352.1c32.5-15.3,377-21.1,1134.9-21.1c757.9,0,1102.3,5.7,1134.9,21.1c74.6,34.4,90,95.7,90,352.1V4408h-153.1h-153.1v-153.1v-153.1H5001h-918.6v153.1V4408h-153.1h-153.1V4168.8z"/><path d="M2329.3,3772.7c-23-9.6-51.7-40.2-63.1-65.1c-30.6-67-30.6-7412.1,0-7477.1c11.5-26.8,42.1-57.4,68.9-68.9c65.1-30.6,5266.7-30.6,5331.8,0c26.8,11.5,57.4,42.1,68.9,68.9c30.6,65.1,30.6,7410.2,0,7475.2c-34.5,74.6-95.7,90-352.1,90h-239.2v-153.1v-153.1h153.1h153.1V-31.9v-3521.4H5001H2551.3V-31.9v3521.4h153.1h153.1v153.1v153.1l-243.1-1.9C2478.6,3793.7,2350.4,3784.2,2329.3,3772.7z"/><path d="M4731.1,2542.1c-346.4-68.9-553.1-292.8-620.1-673.7c-63.1-346.4-7.6-694.7,153.1-966.5c45.9-78.5,57.4-112.9,42.1-126.3c-13.4-9.6-241.1-141.6-505.2-292.8l-484.2-273.7V-22.3c0-323.4,44-467,187.5-625.8c139.7-156.9,63.2-149.3,1496.6-149.3c1190.4,0,1278.4,3.8,1349.2,36.4c99.5,44,210.5,170.3,273.7,306.2c45.9,95.7,51.7,134,57.4,384.7l7.7,277.5l-486.1,275.6c-266,151.2-493.8,283.2-507.1,292.8c-15.3,13.4-3.8,47.8,42.1,126.3c262.2,444,229.7,1142.5-65.1,1437.3C5477.5,2534.5,5100.5,2614.8,4731.1,2542.1z M5376.1,2197.6c99.5-49.8,120.6-70.8,168.4-168.4c49.8-97.6,55.5-135.9,65.1-338.8c15.3-359.8-47.9-595.2-200.9-765.5c-130.1-145.4-210.5-181.8-407.6-181.8c-197.1,0-277.5,36.4-407.6,181.8c-153.1,170.3-216.3,407.6-201,765.5c7.7,197.1,17.2,241.1,61.2,333c91.9,189.5,231.6,245,587.5,235.4C5242.1,2253.1,5272.7,2247.4,5376.1,2197.6z M4706.2,496.3c216.3-90,407.6-84.2,641.1,19.1l109.1,49.8l461.2-266l461.2-264.1v-166.5c0-181.8-36.4-308.1-97.6-340.6c-45.9-24.9-2514.7-24.9-2560.6,0c-61.2,32.5-97.6,158.8-97.6,340.6V35.1l455.5,262.2c248.8,145.4,467,258.4,482.3,254.5C4576.1,547.9,4641.2,523.1,4706.2,496.3z"/><path d="M3316.8-1256.7v-153.1H5001h1684.1v153.1v153.1H5001H3316.8V-1256.7z"/><path d="M3316.8-1869.1v-153.1H5001h1684.1v153.1v153.1H5001H3316.8V-1869.1z"/><path d="M3316.8-2481.6v-153.1h918.6h918.6v153.1v153.1h-918.6h-918.6V-2481.6z"/></g></g>
</svg>