<?xml version="1.0" encoding="utf-8"?>
<!-- Svg Vector Icons : http://www.onlinewebfonts.com/icon -->
<!DOCTYPE svg PUBLIC "-//W3C//DTD SVG 1.1//EN" "http://www.w3.org/Graphics/SVG/1.1/DTD/svg11.dtd">
<svg version="1.1" xmlns="http://www.w3.org/2000/svg" xmlns:xlink="http://www.w3.org/1999/xlink" x="0px" y="0px" viewBox="0 0 1000 1000" enable-background="new 0 0 1000 1000" xml:space="preserve">
<metadata> Svg Vector Icons : http://www.onlinewebfonts.com/icon </metadata>
<g><path d="M597.2,488.4c89.5-38,152.5-126.8,152.5-230c0-137.6-112-249.6-249.7-249.6c-137.7,0-249.7,112-249.7,249.6c0,103.2,63,192,152.5,230C179,533.6,10,731.7,10,968.7c0,7.6,0.8,15,1.1,22.6h77.2c-0.4-7.5-1.1-15-1.1-22.6c0-227.6,185.2-412.8,412.8-412.8s412.8,185.2,412.8,412.8c0,7.6-0.7,15-1.1,22.6h77.2c0.3-7.5,1.1-15,1.1-22.6C990,731.7,821,533.6,597.2,488.4z M327.6,258.4C327.6,163.3,404.9,86,500,86s172.5,77.3,172.5,172.4c0,95.1-77.4,172.5-172.5,172.5C404.9,430.9,327.6,353.5,327.6,258.4z"/></g>
</svg>